# xmcd
# Track frame offsets:
# 150
# 22357
# 40286
# 63650
# 81868
# 101866
# 113757
# 136573
# 150930
# 164833
# 177627
# 196153
#
# Disc length: 2870 seconds
# Revision: 0
# Processed by: cddbd v1.4PL0 Copyright (c) Steve Scherf et al.
# Submitted via: VisiTrax 2.9.5.181 - For more info visit www.synapsa.com
#
DISCID=a50b340c
DTITLE=Park House Jam - Fully Exposed
DYEAR=2003
DGENRE=Blues
TTITLE0=Dangerous Mood
TTITLE1=Chain of Fools
TTITLE2=Why Can't You Love Me
TTITLE3=Passion Song
TTITLE4=You Don't Need To Call
TTITLE5=Kidney Stew Blues
TTITLE6=Green Blues
TTITLE7=Late At Night
TTITLE8=A Little Girl
TTITLE9=Stop ThinkingTake
TTITLE10=Runaway
TTITLE11=Fine and Mellow
EXTD=
EXTT0=
EXTT1=
EXTT2=
EXTT3=
EXTT4=
EXTT5=
EXTT6=
EXTT7=
EXTT8=
EXTT9=
EXTT10=
EXTT11=
PLAYORDER=
